<?xml version="1.0" encoding="UTF-8"?>
<svg width="30" height="30" version="1.1" viewBox="0 0 30.698 30" xmlns="http://www.w3.org/2000/svg">
 <rect y="-.34884" width="30.698" height="30.698" rx="15.349" ry="15.349" fill="#f4ac45" stroke-linejoin="round" stroke-width="9.8568"/>
 <path class="ccustom" d="m16.041 8.1024c0-0.46844-0.10905-0.93046-0.31858-1.3494-0.18108-0.36217-0.2874-0.75709-0.31265-1.1612l-0.06058-0.96888-0.06053 0.96885c-0.02529 0.40414-0.13162 0.79907-0.3127 1.1612-0.20949 0.419-0.31858 0.88103-0.31858 1.3495v13.795c0 0.46844 0.10909 0.93048 0.31858 1.3495 0.18108 0.36216 0.2874 0.7571 0.3127 1.1612l0.06053 0.96883 0.06058-0.96888c0.02525-0.40414 0.13157-0.79904 0.31265-1.1612 0.20953-0.41898 0.31858-0.88097 0.31858-1.3495zm-3.7776 0.03417c0.20953 0.41899 0.31858 0.88103 0.31858 1.3495v11.028c0 0.46848-0.10905 0.93048-0.31858 1.3495-0.18108 0.36216-0.2874 0.7571-0.3127 1.1612l-0.06053 0.96888-0.06053-0.96888c-0.0253-0.40411-0.13162-0.79904-0.3127-1.1612-0.20953-0.41902-0.31858-0.88102-0.31858-1.3495v-11.028c0-0.46844 0.10904-0.93048 0.31858-1.3495 0.18108-0.36218 0.2874-0.7571 0.3127-1.1612l0.06053-0.96886 0.06053 0.96886c0.02529 0.40414 0.13162 0.79906 0.3127 1.1612zm-1.4109 2.7331c0-0.46848-0.10905-0.93048-0.31858-1.3495-0.18108-0.3622-0.28742-0.75712-0.31268-1.1613l-0.06055-0.96886-0.06056 0.96886c-0.02526 0.40414-0.1316 0.79906-0.31269 1.1613-0.2095 0.41898-0.31856 0.88097-0.31856 1.3495v8.2606c0 0.46844 0.10907 0.93048 0.31856 1.3495 0.18109 0.3622 0.28743 0.7571 0.31269 1.1612l0.06056 0.96888 0.06055-0.96888c0.02526-0.40414 0.1316-0.79904 0.31268-1.1612 0.20953-0.41898 0.31858-0.88102 0.31858-1.3495zm-2.0481 1.4177c0.2095 0.41902 0.31856 0.88102 0.31856 1.3495v2.7262c0 0.46844-0.10907 0.93048-0.31856 1.3495-0.18109 0.3622-0.28743 0.7571-0.31269 1.1612l-0.06055 0.96888-0.06056-0.96888c-0.02526-0.40415-0.1316-0.79904-0.31269-1.1612-0.2095-0.41898-0.31856-0.88102-0.31856-1.3495v-2.7262c0-0.46848 0.10907-0.93048 0.31856-1.3495 0.18109-0.36216 0.28743-0.7571 0.31269-1.1612l0.06056-0.96888 0.06055 0.96888c0.02526 0.4041 0.1316 0.79904 0.31269 1.1612zm-1.411 2.7126 7e-5 0.02054v-0.04108zm-1.3835 0.02054 7e-5 -0.02054c0.0032 0.46144 0.11206 0.91608 0.3185 1.3289 0.18109 0.3622 0.28743 0.7571 0.31269 1.1612l0.06055 0.96888 0.06055-0.96888c0.02526-0.40415 0.1316-0.79904 0.31269-1.1612 0.20644-0.41284 0.31536-0.86748 0.3185-1.3289-0.0032-0.46144-0.11206-0.91608-0.3185-1.3289-0.18109-0.3622-0.28743-0.7571-0.31269-1.1612l-0.06055-0.96888-0.06055 0.96888c-0.02526 0.40414-0.1316 0.79904-0.31269 1.1612-0.20644 0.41284-0.31536 0.86748-0.3185 1.3289l-7e-5 -0.02054zm7.9831-8.2675c0.20953 0.41899 0.31858 0.88101 0.31858 1.3495v13.795c0 0.46848-0.10905 0.93048-0.31858 1.3495-0.18108 0.3622-0.2874 0.7571-0.3127 1.1612l-0.06053 0.96888-0.06053-0.96888c-0.0253-0.40415-0.13162-0.79904-0.3127-1.1612-0.20953-0.41898-0.31858-0.88097-0.31858-1.3495v-13.795c0-0.46845 0.10905-0.93047 0.31858-1.3495 0.18108-0.36218 0.2874-0.7571 0.3127-1.1612l0.06053-0.96886 0.06053 0.96886c0.02529 0.40414 0.13162 0.79906 0.3127 1.1612zm3.459 0c0.20953 0.41899 0.31858 0.88101 0.31858 1.3495v13.795c0 0.46848-0.10905 0.93048-0.31858 1.3495-0.18108 0.3622-0.2874 0.7571-0.3127 1.1612l-0.06053 0.96888-0.06053-0.96888c-0.0253-0.40415-0.13162-0.79904-0.3127-1.1612-0.20953-0.41898-0.31858-0.88097-0.31858-1.3495v-13.795c0-0.46845 0.10905-0.93047 0.31858-1.3495 0.18108-0.36218 0.2874-0.7571 0.3127-1.1612l0.06053-0.96886 0.06053 0.96886c0.02529 0.40414 0.13162 0.79906 0.3127 1.1612zm2.0481 2.7331c0-0.46844-0.10905-0.93048-0.31858-1.3495-0.18108-0.36218-0.2874-0.7571-0.3127-1.1612l-0.06053-0.96886-0.06053 0.96886c-0.02529 0.40414-0.13162 0.79906-0.3127 1.1612-0.20953 0.41899-0.31858 0.88103-0.31858 1.3495v11.028c0 0.46848 0.10905 0.93048 0.31858 1.3495 0.18108 0.36216 0.2874 0.7571 0.3127 1.1612l0.06053 0.96888 0.06053-0.96888c0.02529-0.4041 0.13162-0.79904 0.3127-1.1612 0.20953-0.41902 0.31858-0.88102 0.31858-1.3495zm1.4109 0.03416c0.20953 0.41898 0.31858 0.88097 0.31858 1.3495v8.2606c0 0.46844-0.10905 0.93048-0.31858 1.3495-0.18108 0.3622-0.2874 0.7571-0.3127 1.1612l-0.06053 0.96888-0.06053-0.96888c-0.0253-0.40415-0.13162-0.79904-0.3127-1.1612-0.20949-0.41898-0.31858-0.88102-0.31858-1.3495v-8.2606c0-0.46848 0.10909-0.93048 0.31858-1.3495 0.18108-0.3622 0.2874-0.75712 0.3127-1.1613l0.06053-0.96886 0.06053 0.96886c0.02529 0.40414 0.13162 0.79906 0.3127 1.1613zm2.0481 4.1167c0-0.46848-0.10905-0.93048-0.31858-1.3495-0.18108-0.36216-0.2874-0.7571-0.3127-1.1612l-0.06053-0.96888-0.06053 0.96888c-0.02529 0.4041-0.13162 0.79904-0.3127 1.1612-0.20949 0.41902-0.31858 0.88102-0.31858 1.3495v2.7262c0 0.46844 0.10909 0.93048 0.31858 1.3495 0.18108 0.3622 0.2874 0.7571 0.3127 1.1612l0.06053 0.96888 0.06053-0.96888c0.02529-0.40415 0.13162-0.79904 0.3127-1.1612 0.20953-0.41898 0.31858-0.88102 0.31858-1.3495zm1.7294 1.3631c4.3e-5 0.0068 8.6e-5 0.01366 8.6e-5 0.02054v-0.04108c0 0.0069-4.3e-5 0.01371-8.6e-5 0.02054zm-1.3834 0c0.0031 0.46144 0.11203 0.91608 0.31849 1.3289 0.18108 0.3622 0.2874 0.7571 0.3127 1.1612l0.06053 0.96888 0.06053-0.96888c0.02529-0.40415 0.13162-0.79904 0.3127-1.1612 0.20646-0.41284 0.31538-0.86748 0.31849-1.3289-0.0031-0.46144-0.11203-0.91608-0.31849-1.3289-0.18108-0.3622-0.2874-0.7571-0.3127-1.1612l-0.06053-0.96888-0.06053 0.96888c-0.02529 0.40414-0.13162 0.79904-0.3127 1.1612-0.20646 0.41284-0.31538 0.86748-0.31849 1.3289zm0 0c-4.3e-5 -0.0068-8.7e-5 -0.01366-8.7e-5 -0.02054v0.04108c0-0.0069 4.4e-5 -0.01371 8.7e-5 -0.02054z" clip-rule="evenodd" fill="#a61c3c" fill-rule="evenodd" stroke-width=".43238"/>
</svg>
